<?xml version="1.0" standalone="no"?>
<!DOCTYPE svg PUBLIC "-//W3C//DTD SVG 20010904//EN"
 "http://www.w3.org/TR/2001/REC-SVG-20010904/DTD/svg10.dtd">
<svg version="1.0" xmlns="http://www.w3.org/2000/svg"
 width="1254.000000pt" height="1254.000000pt" viewBox="0 0 1254.000000 1254.000000"
 preserveAspectRatio="xMidYMid meet">

<g transform="translate(0.000000,1254.000000) scale(0.100000,-0.100000)"
fill="#000000" stroke="none">
<path d="M4185 9290 c-602 -49 -1157 -271 -1595 -638 -113 -95 -313 -298 -395
-402 -587 -740 -773 -1770 -499 -2765 231 -840 863 -1547 1667 -1863 211 -83
486 -153 717 -182 299 -38 728 -16 1130 57 80 14 152 26 160 27 13 1 15 -21
18 -132 3 -130 3 -133 27 -144 19 -8 29 -8 47 5 13 8 160 133 328 277 168 144
387 330 487 413 100 84 185 162 188 174 4 12 4 31 0 42 -3 11 -65 71 -138 133
-134 115 -563 487 -756 655 -176 154 -181 151 -181 -112 0 -142 -3 -195 -12
-202 -32 -25 -263 -74 -472 -99 -199 -25 -603 -22 -758 5 -451 79 -807 284
-1090 629 -439 534 -534 1400 -224 2037 190 388 510 688 903 849 421 172 931
168 1374 -9 190 -77 336 -166 516 -316 45 -38 91 -69 102 -69 13 0 113 87 268
233 137 127 297 276 355 331 59 54 110 107 113 117 10 31 -21 73 -127 174
-282 266 -567 447 -925 588 -365 144 -847 218 -1228 187z"/>
<path d="M6900 6361 l0 -2881 510 0 510 0 2 1023 3 1022 339 0 339 0 95 -155
c53 -85 182 -297 287 -470 106 -173 313 -513 462 -755 148 -242 300 -491 337
-553 l69 -112 609 0 c493 0 609 2 605 13 -11 28 -504 834 -912 1492 -92 149
-180 290 -195 315 -15 25 -69 112 -119 193 -50 82 -93 153 -94 159 -1 5 34 23
78 39 198 73 399 194 560 337 277 246 463 592 532 992 35 205 27 536 -18 764
-97 485 -409 914 -845 1164 -244 139 -457 211 -787 264 -128 21 -164 22 -1249
25 l-1118 4 0 -2880z m2155 1809 c261 -30 451 -110 602 -253 176 -167 255
-400 225 -659 -45 -383 -302 -637 -722 -715 -83 -16 -164 -18 -665 -18 l-570
0 -3 815 c-1 448 0 821 3 828 6 15 993 17 1130 2z"/>
</g>
</svg>
